<svg width="17" height="17" viewBox="0 0 17 17" fill="none" xmlns="http://www.w3.org/2000/svg">
<path d="M0.94694 16.0531C0.35102 15.4571 0.35102 14.491 0.946941 13.895L6.34198 8.5L0.94694 3.10496C0.35102 2.50904 0.35102 1.54286 0.94694 0.94694C1.54286 0.35102 2.50904 0.35102 3.10496 0.946941L8.5 6.34198L13.895 0.94694C14.491 0.35102 15.4571 0.35102 16.0531 0.94694C16.649 1.54286 16.649 2.50904 16.0531 3.10496L10.658 8.5L16.0531 13.895C16.649 14.491 16.649 15.4571 16.0531 16.0531C15.4571 16.649 14.491 16.649 13.895 16.0531L8.5 10.658L3.10496 16.0531C2.50904 16.649 1.54286 16.649 0.94694 16.0531Z" fill="#EA8383"/>
</svg>
