<svg width="59" height="46" viewBox="0 0 59 46" fill="none" xmlns="http://www.w3.org/2000/svg">
<path d="M4.61248 8.69999L16.2011 15.2446L26.8985 1.54766C27.1349 1.24467 27.4534 0.997695 27.8276 0.827294C28.2018 0.656893 28.6208 0.567993 29.0497 0.567993C29.4787 0.567993 29.9051 0.656893 30.2937 0.827294C30.6822 0.997695 31.0216 1.24467 31.2835 1.54766L43.136 15.2446L54.1727 8.69999C54.5904 8.45281 55.0854 8.31715 55.5992 8.30904C56.1131 8.30093 56.6242 8.42071 57.0722 8.65423C57.5203 8.88775 57.8865 9.22525 58.1277 9.62684C58.3689 10.0284 58.4749 10.4773 58.4332 10.9205L55.3842 43.5664C55.331 44.135 55.0382 44.6592 54.5612 45.0396C54.0842 45.4201 53.4564 45.6303 52.7966 45.6303H9.10283C8.4431 45.6303 7.79749 45.4201 7.28844 45.0396C6.7794 44.6592 6.44233 44.135 6.34117 43.5664L0.539173 10.9182C0.4607 10.4752 0.529285 10.0266 0.736831 9.6254C0.944378 9.22418 1.28222 8.88707 1.71048 8.65386C2.13874 8.42064 2.63953 8.30107 3.15374 8.30924C3.66795 8.31742 4.17412 8.453 4.61248 8.69999ZM30.3584 31.6061C31.7871 31.6061 33.1366 31.1136 34.1099 30.237C35.0831 29.3603 35.6006 28.1712 35.5483 26.9314C35.496 25.6916 34.8783 24.5026 33.8311 23.6259C32.7839 22.7492 31.3929 22.2567 29.9642 22.2567C28.5355 22.2567 27.1861 22.7492 26.2128 23.6259C25.2395 24.5026 24.722 25.6916 24.7743 26.9314C24.8266 28.1712 25.4443 29.3603 26.4915 30.237C27.5387 31.1136 28.9297 31.6061 30.3584 31.6061Z" fill="#F6B40B"/>
</svg>
